{"title":"186 Dollars To Freedom 2012 BRRip 720p x264 AAC - PRiSTiNE [P2PD","uid":8290708,"size":612293239,"categoryP":"video","categoryS":"hd___movies","magnet":"?xt=urn:btih:4108de8d36395b492d9641556bdf3c228697d164&amp;dn=186+Dollars+To+Freedom+2012+BRRip+720p+x264+AAC+-+PRiSTiNE+%5BP2PD&amp;tr=udp%3A%2F%2Ftracker.openbittorrent.com%3A80&amp;tr=udp%3A%2F%2Fopen.demonii.com%3A1337&amp;tr=udp%3A%2F%2Ftracker.coppersurfer.tk%3A6969&amp;tr=udp%3A%2F%2Fexodus.desync.com%3A6969","seeders":1,"leechers":0,"uploader":"Vitamin_X","files":-1,"time":1364038911,"description":"_________________________  Visit us at _________________________\n  &lt;a href=&quot;\nhttp://p2pdl.com&quot; rel=&quot;nofollow&quot; target=&quot;_NEW&quot;&gt;\nhttp://p2pdl.com&lt;/a&gt;  ____________________________ &lt;a href=&quot; http://p2pdl.com&quot; rel=&quot;nofollow&quot; target=&quot;_NEW&quot;&gt; http://p2pdl.com&lt;/a&gt;\n\n\n186 Dollars To Freedom 2012 BRRip 720p x264 AAC - PRiSTiNE\n\nGenre: Action | Drama\nPlot: A young California surfer has to grow up \nin a hurry when he is thrown into a Peruvian \npolitical prison in 1980.\nDirector: Camilo Vila\nStars: John Robinson, Michael DeLorenzo, Alex Meraz\nRated: Rated PG-13 for sex related dialogue and some teen use of alcohol and drugs\n\nInfo: &lt;a href=&quot;\nhttp://www.imdb.com/title/tt1652361/&quot; rel=&quot;nofollow&quot; target=&quot;_NEW&quot;&gt;\nhttp://www.imdb.com/title/tt1652361/&lt;/a&gt;\n\nGeneral\nComplete name                  : 186 Dollars To Freedom 2012 BRRip 720p x264 AAC - PRiSTiNE.mp4\nFormat                         : MPEG-4\nFormat profile                 : Base Media\nFile size                      : 578 MiB\nDuration                       : 1h 38mn\nOverall bit rate mode          : Variable\nOverall bit rate               : 822 Kbps\n\nSource                         : 720p BluRay BRMP (Thanks)\n\nVideo\nFormat                         : AVC\nFormat profile                 : &lt;a class=&quot;__cf_email__&quot; href=&quot;/cdn-cgi/l/email-protection&quot; data-cfemail=&quot;561e3f313e161a627867&quot;&gt;[email&amp;#160;protected]&lt;/a&gt;&lt;script cf-hash='f9e31' type=&quot;text/javascript&quot;&gt;\n/* &lt;![CDATA[ */!function(){try{var t=&quot;currentScript&quot;in document?document.currentScript:function(){for(var t=document.getElementsByTagName(&quot;script&quot;),e=t.length;e--;)if(t[e].getAttribute(&quot;cf-hash&quot;))return t[e]}();if(t&amp;&amp;t.previousSibling){var e,r,n,i,c=t.previousSibling,a=c.getAttribute(&quot;data-cfemail&quot;);if(a){for(e=&quot;&quot;,r=parseInt(a.substr(0,2),16),n=2;a.length-n;n+=2)i=parseInt(a.substr(n,2),16)^r,e+=String.fromCharCode(i);e=document.createTextNode(e),c.parentNode.replaceChild(e,c)}}}catch(u){}}();/* ]]&gt; */&lt;/script&gt;\nFormat settings, CABAC         : Yes\nCodec ID/Info                  : Advanced Video Coding\nDuration                       : 1h 38mn\nBit rate                       : 735 Kbps\nWidth                          : 1 280 pixels\nHeight                         : 720 pixels\nDisplay aspect ratio           : 16:9\nFrame rate mode                : Constant\nFrame rate                     : 23.976 fps\nBit depth                      : 8 bits\nStream size                    : 517 MiB (89%)\nWriting library                : x264 core 129 r2245 bc13772\n\nAudio\nFormat                         : AAC\nFormat/Info                    : Advanced Audio Codec\nBit rate mode                  : Variable\nBit rate                       : 83.9 Kbps\nChannel(s)                     : 2 channels\nChannel positions              : Front: L R\nSampling rate                  : 48.0 KHz / 24.0 KHz\nStream size                    : 59.0 MiB (10%)\n\nSubtitle                       : No\n\nScreens: &lt;a href=&quot;\nhttp://imgr.us/images/yzhg39rbkgnrap2o9j6y.jpg&quot; rel=&quot;nofollow&quot; target=&quot;_NEW&quot;&gt;\nhttp://imgr.us/images/yzhg39rbkgnrap2o9j6y.jpg&lt;/a&gt; &lt;a href=&quot;\nhttp://imgr.us/images/2aavr2iyd7l6hvvotu9.jpg&quot; rel=&quot;nofollow&quot; target=&quot;_NEW&quot;&gt;\nhttp://imgr.us/images/2aavr2iyd7l6hvvotu9.jpg&lt;/a&gt; &lt;a href=&quot;\nhttp://imgr.us/images/qw1q6d8r8dnhil8joylk.jpg&quot; rel=&quot;nofollow&quot; target=&quot;_NEW&quot;&gt;\nhttp://imgr.us/images/qw1q6d8r8dnhil8joylk.jpg&lt;/a&gt; &lt;a href=&quot;\nhttp://imgr.us/images/p3b9mpzb0d4ve053gs9d.jpg&quot; rel=&quot;nofollow&quot; target=&quot;_NEW&quot;&gt;\nhttp://imgr.us/images/p3b9mpzb0d4ve053gs9d.jpg&lt;/a&gt;\n\n----------------------------------------------------------------------------------------------------\nEncoded using revolutionary 10bit encoding, which enables us to provide you more crispier \nand sharper images at small sizes, just make sure you follow our instructions without a fault.\nRecommend to you to use latest version of VLC player. Install K-Lite Codec Pack or shark007 codecs\nin case of any kind of problem in playback (For non-VLC Media Player users). Alternatively, install\nCore AVC codecs, the fastest decoder that there is coupled with Community Center Codec Pack and play\non Windows Media Player Classic. Check sample to be sure.\nEnjoy!\n\nEncoder Notes: Looking For Early Access To Anything You Can Provide DVDScr, R5, DVDR, BluRay, Direct\nAudio, Music Releases and Seedboxes. We require dedicated servers, so as to do more \nand fast releases of movies.\nIf You Got anything to offer please contact us at &quot;&lt;a class=&quot;__cf_email__&quot; href=&quot;/cdn-cgi/l/email-protection&quot; data-cfemail=&quot;5f2f2d381f372a2c37713c3032&quot;&gt;[email&amp;#160;protected]&lt;/a&gt;&lt;script cf-hash='f9e31' type=&quot;text/javascript&quot;&gt;\n/* &lt;![CDATA[ */!function(){try{var t=&quot;currentScript&quot;in document?document.currentScript:function(){for(var t=document.getElementsByTagName(&quot;script&quot;),e=t.length;e--;)if(t[e].getAttribute(&quot;cf-hash&quot;))return t[e]}();if(t&amp;&amp;t.previousSibling){var e,r,n,i,c=t.previousSibling,a=c.getAttribute(&quot;data-cfemail&quot;);if(a){for(e=&quot;&quot;,r=parseInt(a.substr(0,2),16),n=2;a.length-n;n+=2)i=parseInt(a.substr(n,2),16)^r,e+=String.fromCharCode(i);e=document.createTextNode(e),c.parentNode.replaceChild(e,c)}}}catch(u){}}();/* ]]&gt; */&lt;/script&gt;&quot;.","torrent":{"xt":"urn:btih:4108de8d36395b492d9641556bdf3c228697d164","amp;dn":"186+Dollars+To+Freedom+2012+BRRip+720p+x264+AAC+-+PRiSTiNE+%5BP2PD","amp;tr":["udp%3A%2F%2Ftracker.openbittorrent.com%3A80","udp%3A%2F%2Fopen.demonii.com%3A1337","udp%3A%2F%2Ftracker.coppersurfer.tk%3A6969","udp%3A%2F%2Fexodus.desync.com%3A6969"],"infoHash":"4108de8d36395b492d9641556bdf3c228697d164","infoHashBuffer":{"type":"Buffer","data":[65,8,222,141,54,57,91,73,45,150,65,85,107,223,60,34,134,151,209,100]},"announce":[],"urlList":[]}}